<svg width="124" height="125" viewBox="0 0 124 125" fill="none" xmlns="http://www.w3.org/2000/svg">
<path d="M64.3437 121.342C64.0771 119.142 65.6323 117.142 67.832 116.876C70.0316 116.609 72.0312 118.164 72.2979 120.386C72.5645 122.586 71.0092 124.586 68.8096 124.852C68.6318 124.852 68.4763 124.874 68.3208 124.874C66.3211 124.874 64.5881 123.386 64.3437 121.342ZM38.9481 121.253C36.8818 120.453 35.8375 118.142 36.6151 116.076C37.3928 114.01 39.7035 112.965 41.7698 113.743C43.8361 114.543 44.8804 116.854 44.1027 118.92C43.4806 120.52 41.9698 121.519 40.3478 121.519C39.8812 121.519 39.3924 121.431 38.9259 121.275L38.9481 121.253ZM91.3168 113.143C90.0503 111.321 90.5169 108.833 92.3388 107.544C94.1607 106.278 96.6492 106.744 97.9156 108.566C99.1821 110.388 98.7377 112.876 96.9158 114.165C96.2048 114.654 95.4272 114.876 94.6273 114.876C93.3609 114.876 92.0944 114.276 91.3168 113.143ZM14.1968 104.189C12.7082 102.523 12.8637 99.9898 14.5079 98.5234C16.1742 97.057 18.7071 97.1903 20.1736 98.8567C21.64 100.523 21.5067 103.056 19.8403 104.522C19.0849 105.211 18.1295 105.544 17.1741 105.544C16.0632 105.544 14.9745 105.1 14.1746 104.189H14.1968ZM111.402 93.3243C109.447 92.28 108.692 89.8582 109.714 87.903C110.736 85.9478 113.157 85.1924 115.135 86.2144C117.09 87.2365 117.846 89.6805 116.823 91.6357C116.09 93.0132 114.713 93.7909 113.269 93.7909C112.646 93.7909 112.002 93.6354 111.402 93.3465V93.3243ZM0.1548 77.5937C-0.356223 75.4386 0.954662 73.2611 3.08763 72.7501C5.22059 72.2168 7.39799 73.5277 7.93123 75.6829C8.46447 77.8159 7.15359 79.9933 4.9984 80.5265C4.68735 80.6154 4.35407 80.6376 4.0208 80.6376C2.22111 80.6376 0.576948 79.4156 0.132581 77.5937H0.1548ZM115.979 62.4408V62.3297V62.2186C115.979 59.9967 117.757 58.1971 119.978 58.1971C122.2 58.1971 124 59.9746 124 62.1742V62.3075V62.4185C124 64.6404 122.2 66.4401 119.978 66.4401C117.757 66.4401 115.957 64.6404 115.957 62.4185L115.979 62.4408ZM3.06541 52.3759C0.910224 51.8648 -0.40066 49.6875 0.110363 47.5323C0.621386 45.3771 2.82101 44.0662 4.95397 44.5772C7.10915 45.0882 8.42003 47.2878 7.88679 49.4208C7.44243 51.2427 5.79827 52.4869 3.99858 52.4869C3.68752 52.4869 3.37646 52.4425 3.04319 52.3759H3.06541ZM109.625 36.7785C108.603 34.8233 109.336 32.4016 111.291 31.3573C113.246 30.313 115.668 31.0685 116.712 33.0237C117.757 34.9789 117.001 37.4006 115.046 38.4449C114.446 38.756 113.802 38.9115 113.18 38.9115C111.735 38.9115 110.336 38.1338 109.625 36.7785ZM14.3968 26.5359C12.7304 25.0695 12.5749 22.5366 14.0413 20.8702C15.5077 19.2039 18.0406 19.0483 19.707 20.5147C21.3733 21.9811 21.5289 24.514 20.0625 26.1804C19.2626 27.0691 18.1739 27.5357 17.0408 27.5357C16.1076 27.5357 15.1522 27.2024 14.3968 26.5359ZM92.1611 17.2041C90.3392 15.9599 89.8726 13.4493 91.1168 11.6274C92.3833 9.80548 94.8717 9.33884 96.6936 10.6053C98.5155 11.8717 99.0043 14.338 97.7379 16.1821C96.9602 17.3153 95.716 17.9151 94.4274 17.9151C93.6497 17.9151 92.8721 17.693 92.1611 17.2041ZM36.4152 8.8945C35.6153 6.82819 36.6596 4.51751 38.7259 3.71765C40.7922 2.91779 43.1029 3.962 43.9028 6.02831C44.7026 8.09462 43.6584 10.4054 41.5921 11.2052C41.1033 11.383 40.6367 11.4718 40.1479 11.4718C38.5481 11.4718 37.0151 10.4942 36.4152 8.8945ZM67.632 7.98354C65.4324 7.73914 63.8549 5.73948 64.1215 3.53986C64.3659 1.34024 66.3878 -0.23723 68.5652 0.0293902C70.7648 0.273792 72.3423 2.27345 72.0757 4.47306C71.8313 6.51715 70.1205 8.00578 68.0986 8.00578C67.9431 8.00578 67.7875 8.00576 67.6098 7.98354H67.632Z" fill="#4AD4CD"/>
<path d="M63.7887 110.632C63.5665 108.833 64.8552 107.189 66.6549 106.989C68.4546 106.766 70.0987 108.055 70.2987 109.855C70.5209 111.654 69.2322 113.299 67.4325 113.499C67.2992 113.521 67.1659 113.521 67.0326 113.521C65.4106 113.521 63.9887 112.299 63.7887 110.632ZM43.0145 110.566C41.3259 109.921 40.4594 108.033 41.1259 106.344C41.7481 104.656 43.6588 103.789 45.3474 104.433C47.036 105.078 47.9026 106.966 47.2582 108.655C46.7472 109.988 45.503 110.788 44.1921 110.788C43.8144 110.788 43.4144 110.721 43.0367 110.566H43.0145ZM85.8737 103.945C84.8517 102.456 85.2294 100.412 86.6958 99.3677C88.1845 98.3456 90.2286 98.7233 91.2728 100.19C92.2949 101.678 91.9394 103.722 90.4507 104.767C89.8731 105.144 89.2287 105.344 88.5844 105.344C87.5401 105.344 86.5181 104.856 85.8737 103.945ZM22.7736 96.6126C21.5738 95.2573 21.6849 93.191 23.0624 91.9912C24.4177 90.7914 26.484 90.9025 27.6838 92.2578C28.8836 93.6131 28.7725 95.6795 27.4172 96.9015C26.7951 97.4569 26.0175 97.7235 25.2398 97.7235C24.3289 97.7235 23.4401 97.3458 22.7736 96.6126ZM102.315 87.7253C100.716 86.8588 100.071 84.8813 100.938 83.2816C101.782 81.6819 103.76 81.0598 105.359 81.9041C106.959 82.7484 107.581 84.748 106.737 86.3255C106.137 87.4586 105.004 88.0808 103.826 88.0808C103.315 88.0808 102.782 87.9697 102.293 87.703L102.315 87.7253ZM11.2867 74.8608C10.8423 73.1056 11.931 71.3281 13.6863 70.8837C15.4415 70.4394 17.219 71.5059 17.6633 73.2833C18.0855 75.0386 17.019 76.816 15.2638 77.2604C14.9971 77.327 14.7527 77.3493 14.4861 77.3493C13.0197 77.3493 11.6866 76.3495 11.3089 74.8608H11.2867ZM106.048 62.463V62.4185C106.048 62.4185 106.048 62.3297 106.048 62.3075C106.048 60.4856 107.514 59.0191 109.314 58.9969C111.136 58.9969 112.602 60.4633 112.602 62.263V62.3741V62.463C112.602 64.2849 111.136 65.7513 109.336 65.7513C107.514 65.7513 106.048 64.2849 106.048 62.463ZM13.664 54.2199C11.9088 53.7978 10.8201 52.0204 11.2645 50.2429C11.7088 48.4877 13.4641 47.3989 15.2415 47.8433C16.9968 48.2654 18.0855 50.0429 17.6633 51.8204C17.2856 53.309 15.9525 54.3088 14.4639 54.3088C14.2195 54.3088 13.9529 54.2866 13.6863 54.2199H13.664ZM100.849 41.4666C100.005 39.8669 100.605 37.8895 102.204 37.0229C103.804 36.1786 105.781 36.7785 106.648 38.3782C107.514 39.978 106.892 41.9776 105.293 42.8219C104.804 43.0663 104.271 43.1996 103.76 43.1996C102.604 43.1996 101.449 42.5553 100.849 41.4444V41.4666ZM22.9291 33.0903C21.5738 31.8905 21.4405 29.8242 22.6403 28.4689C23.8401 27.1135 25.9064 26.9802 27.2617 28.18C28.617 29.3798 28.7503 31.4461 27.5505 32.8236C26.9062 33.5568 25.9952 33.9346 25.0843 33.9346C24.3289 33.9346 23.5512 33.6457 22.9291 33.1125V33.0903ZM86.5625 25.4694C85.0739 24.4473 84.6962 22.4032 85.7182 20.8924C86.7403 19.4038 88.7844 19.026 90.273 20.0481C91.7616 21.0701 92.1393 23.1143 91.1395 24.6029C90.4952 25.5361 89.4731 26.0248 88.4289 26.0248C87.7845 26.0248 87.1402 25.8471 86.5625 25.4472V25.4694ZM40.9482 18.6705C40.3039 16.982 41.1482 15.0934 42.8368 14.4268C44.5254 13.7825 46.4361 14.6268 47.0805 16.3154C47.747 18.004 46.8805 19.8926 45.1919 20.5591C44.8142 20.7147 44.392 20.7813 44.0143 20.7813C42.6812 20.7813 41.437 19.9814 40.9482 18.6705ZM66.4771 17.9151C64.6774 17.7152 63.3888 16.0933 63.5887 14.2714C63.8109 12.4717 65.4328 11.183 67.2325 11.4052C69.0322 11.6274 70.3209 13.2493 70.0987 15.0489C69.8987 16.7153 68.4768 17.9595 66.8326 17.9595C66.7215 17.9595 66.5882 17.9596 66.4549 17.9374L66.4771 17.9151Z" fill="#4AD4CD"/>
<path d="M63.277 101.501C63.0992 100.034 64.1435 98.7233 65.5877 98.5456C67.0541 98.3678 68.3872 99.3898 68.5649 100.878C68.7427 102.323 67.6984 103.656 66.232 103.834C66.232 103.834 66.0098 103.834 65.9209 103.834C64.5878 103.834 63.4547 102.834 63.277 101.501ZM46.4354 101.456C45.0579 100.945 44.3691 99.3898 44.9024 98.0345C45.4134 96.657 46.9465 95.9683 48.324 96.4793C49.7015 96.9903 50.3903 98.5455 49.8793 99.9009C49.4794 100.967 48.4573 101.634 47.3908 101.634C47.0798 101.634 46.7465 101.589 46.4354 101.456ZM81.1628 96.0793C80.3185 94.8573 80.6295 93.2132 81.8293 92.3689C83.0291 91.5468 84.6955 91.8356 85.5398 93.0354C86.3619 94.2574 86.073 95.9016 84.8732 96.7459C84.4066 97.057 83.8734 97.2125 83.3401 97.2125C82.4959 97.2125 81.6738 96.8347 81.1628 96.0793ZM30.0383 90.147C29.0607 89.0583 29.1495 87.3697 30.2605 86.3921C31.3492 85.4145 33.0378 85.5034 34.0154 86.6143C34.993 87.703 34.9041 89.3916 33.7932 90.3692C33.2822 90.8136 32.66 91.0358 32.0379 91.0358C31.3047 91.0358 30.5715 90.7469 30.0383 90.147ZM94.4716 82.9482C93.1829 82.2595 92.6719 80.6597 93.3606 79.3489C94.0494 78.0602 95.6491 77.5492 96.9378 78.2379C98.2265 78.9267 98.7375 80.5265 98.0709 81.8151C97.5821 82.7261 96.6712 83.2371 95.6936 83.2371C95.2714 83.2371 94.8715 83.126 94.4716 82.9261V82.9482ZM20.7288 72.5279C20.3733 71.1059 21.2398 69.6617 22.6618 69.3062C24.0838 68.9507 25.528 69.8172 25.8834 71.2392C26.2389 72.6611 25.3724 74.1054 23.9282 74.4609C23.706 74.5053 23.5061 74.5497 23.3061 74.5497C22.1063 74.5497 21.0176 73.7499 20.7288 72.5279ZM97.4933 62.4851V62.3962V62.3296C97.4933 60.8632 98.6708 59.6634 100.137 59.6634C101.604 59.6634 102.803 60.841 102.803 62.3074C102.803 62.3074 102.803 62.3518 102.803 62.3962C102.803 62.3962 102.803 62.4407 102.803 62.4851C102.803 63.9515 101.604 65.1514 100.137 65.1514C98.6708 65.1514 97.471 63.9515 97.471 62.4851H97.4933ZM22.6396 55.8196C21.2176 55.4641 20.3289 54.0199 20.6843 52.6202C21.0398 51.1982 22.4618 50.3094 23.8838 50.6649C25.3058 51.0204 26.1723 52.4647 25.839 53.8866C25.5502 55.1086 24.4615 55.9085 23.2617 55.9085C23.0617 55.9085 22.8395 55.8863 22.6396 55.8196ZM93.294 45.4881C92.6052 44.1994 93.094 42.5775 94.3827 41.911C95.6714 41.2222 97.2933 41.711 97.9821 42.9996C98.6708 44.2883 98.182 45.9102 96.8934 46.599C96.4934 46.8212 96.0713 46.9101 95.6269 46.9101C94.6715 46.9101 93.7606 46.399 93.294 45.4881ZM30.1494 38.6893C29.0385 37.7117 28.9274 36.0453 29.905 34.9566C30.8826 33.8457 32.549 33.7346 33.6599 34.7122C34.7486 35.6898 34.8597 37.3562 33.8821 38.4671C33.371 39.0448 32.6156 39.3558 31.8824 39.3558C31.2603 39.3558 30.616 39.1336 30.1272 38.6893H30.1494ZM81.696 32.5126C80.4962 31.6905 80.1851 30.0241 81.0072 28.8021C81.8293 27.6023 83.4957 27.2912 84.6955 28.1133C85.9175 28.9354 86.2285 30.6018 85.3842 31.8016C84.8732 32.557 84.0289 32.9569 83.1846 32.9569C82.6736 32.9569 82.1404 32.8014 81.6738 32.4903L81.696 32.5126ZM44.7468 27.0024C44.2358 25.6248 44.9246 24.0918 46.2799 23.5586C47.6574 23.0475 49.1905 23.7141 49.7238 25.0916C50.2348 26.447 49.5682 28.0022 48.1907 28.5355C47.8796 28.6465 47.5686 28.7132 47.2353 28.7132C46.1688 28.7132 45.169 28.0689 44.7468 27.0024ZM65.4544 26.4025C63.9879 26.2248 62.9437 24.9138 63.1214 23.4474C63.2992 21.981 64.6101 20.9368 66.0765 21.1145C67.5429 21.2701 68.5872 22.6031 68.4094 24.0695C68.2539 25.4249 67.1207 26.4025 65.7654 26.4025C65.7654 26.4025 65.5655 26.4025 65.4544 26.4025Z" fill="#4AD4CD"/>
</svg>
