<svg width="111" height="111" viewBox="0 0 111 111" fill="none" xmlns="http://www.w3.org/2000/svg">
<path d="M53.9879 1.5121L1.51209 53.9879C0.676981 54.823 0.677004 56.177 1.51211 57.0121L53.9879 109.488C54.823 110.323 56.177 110.323 57.0121 109.488L109.488 57.0121C110.323 56.177 110.323 54.823 109.488 53.9879L57.0121 1.51211C56.177 0.676999 54.823 0.676999 53.9879 1.5121Z" stroke="#4AD4CD" stroke-width="1.66" stroke-miterlimit="10"/>
<path d="M50.8868 28.375L28.3751 50.8866C25.8272 53.4346 25.8272 57.5655 28.3751 60.1135L50.8868 82.6252C53.4348 85.1731 57.5657 85.1731 60.1137 82.6252L82.6254 60.1135C85.1733 57.5656 85.1733 53.4346 82.6254 50.8866L60.1137 28.375C57.5657 25.827 53.4348 25.827 50.8868 28.375Z" fill="#F6F6F6"/>
</svg>
