<svg width="122" height="224" viewBox="0 0 122 224" fill="none" xmlns="http://www.w3.org/2000/svg">
<path d="M16.8003 179.869L22.6483 188.56" stroke="#F6F6F6" stroke-width="1.65" stroke-linecap="round" stroke-linejoin="round"/>
<path d="M-3.27832 150.016L7.47103 166.005" stroke="#F6F6F6" stroke-width="1.65" stroke-linecap="round" stroke-linejoin="round"/>
<path d="M14.9363 151.951L55.4387 212.126" stroke="#F6F6F6" stroke-width="1.65" stroke-linecap="round" stroke-linejoin="round"/>
<path d="M-5.70435 121.262L2.50068 133.47" stroke="#F6F6F6" stroke-width="1.65" stroke-linecap="round" stroke-linejoin="round"/>
<path d="M44.0483 170.05L79.679 223" stroke="#1D267D" stroke-width="1.65" stroke-linecap="round" stroke-linejoin="round"/>
<path d="M-9.71826 90.1635L28.2694 146.616" stroke="#35BEF0" stroke-width="1.65" stroke-linecap="round" stroke-linejoin="round"/>
<path d="M31.8293 1L57.5095 39.148" stroke="#F6F6F6" stroke-width="1.65" stroke-linecap="round" stroke-linejoin="round"/>
<path d="M20.0642 109.274L82.9627 202.731" stroke="#F6F6F6" stroke-width="1.65" stroke-linecap="round" stroke-linejoin="round"/>
<path d="M-5.94116 70.6278L7.37226 90.4126" stroke="#F6F6F6" stroke-width="1.65" stroke-linecap="round" stroke-linejoin="round"/>
<path d="M71.9968 161.286L87.115 183.753" stroke="#F6F6F6" stroke-width="1.65" stroke-linecap="round" stroke-linejoin="round"/>
<path d="M-21 23.0858L56.0995 137.662" stroke="#F6F6F6" stroke-width="1.65" stroke-linecap="round" stroke-linejoin="round"/>
<path d="M40.8335 89.8411L116.158 201.764" stroke="#35BEF0" stroke-width="1.65" stroke-linecap="round" stroke-linejoin="round"/>
<path d="M7.56958 40.3937L25.0644 66.407" stroke="#4AD4CD" stroke-width="1.65" stroke-linecap="round" stroke-linejoin="round"/>
<path d="M55.4585 86.4117L104.107 158.721" stroke="#F6F6F6" stroke-width="1.65" stroke-linecap="round" stroke-linejoin="round"/>
<path d="M5.78467 12.5925L41.7408 66.0261" stroke="#F6F6F6" stroke-width="1.65" stroke-linecap="round" stroke-linejoin="round"/>
<path d="M95.5862 120.896L121 158.663" stroke="#4AD4CD" stroke-width="1.65" stroke-linecap="round" stroke-linejoin="round"/>
<path d="M27.7568 20.096L77.125 93.461" stroke="#1D267D" stroke-width="1.65" stroke-linecap="round" stroke-linejoin="round"/>
<path d="M70.9709 59.1674L105.3 110.183" stroke="#F6F6F6" stroke-width="1.65" stroke-linecap="round" stroke-linejoin="round"/>
<path d="M101.483 79.3624L114.836 99.2058" stroke="#4AD4CD" stroke-width="1.65" stroke-linecap="round" stroke-linejoin="round"/>
<path d="M52.3716 6.3786L86.2271 56.6906" stroke="#35BEF0" stroke-width="1.65" stroke-linecap="round" stroke-linejoin="round"/>
<path d="M94.5405 43.8964L102.746 56.0897" stroke="#F6F6F6" stroke-width="1.65" stroke-linecap="round" stroke-linejoin="round"/>
<path d="M80.1328 22.4849L85.7935 30.8971" stroke="#F6F6F6" stroke-width="1.65" stroke-linecap="round" stroke-linejoin="round"/>
</svg>
